<svg id="Capa_1" enable-background="new 0 0 512 512" height="512" viewBox="0 0 512 512" width="512" xmlns="http://www.w3.org/2000/svg"><g><g><g><path d="m385.498 311.363c-13.021-13.021-34.131-13.021-47.152 0l-19.906 19.906v27.394h39.983l27.075-27.075c5.586-5.584 5.586-14.64 0-20.225z" fill="#d68a5a"/><path d="m384.248 367.582 35.993-35.993c5.585-5.585 5.585-14.641 0-20.226-13.021-13.021-34.131-13.021-47.152 0l-33.229 33.229h-12.971v22.99z" fill="#f5a871"/><g><g><path d="m453.726 331.59-55.986 55.986c-3.123 3.123-7.363 4.885-11.787 4.885h-141.16c-7.271 0-14.235 2.888-19.376 8.029l-104.015 104.005-67.312-67.302 117.923-117.912c8.787-8.797 20.707-13.733 33.139-13.733h86.985c21.905 0 39.755 17.338 40.574 39.048h40.635l33.231-33.231c13.016-13.026 34.133-13.026 47.149 0 5.591 5.581 5.591 14.644 0 20.225z" fill="#fdd1a7"/><g fill="#ffbc8a"><path d="m90.103 401.388h39.02v95.184h-39.02z" transform="matrix(.707 -.707 .707 .707 -285.372 209.011)"/><path d="m332.75 346.156c0 7.885-6.393 14.27-14.27 14.27h-28.499c7.885 0 14.27-6.385 14.27-14.27 0-11.219-4.543-21.372-11.895-28.715-7.343-7.352-17.496-11.895-28.707-11.895h28.49c11.211 0 21.364 4.543 28.715 11.895 7.353 7.343 11.896 17.495 11.896 28.715z"/><path d="m453.729 331.586-55.989 55.989c-3.126 3.126-7.368 4.885-11.786 4.885h-25.998c4.426 0 8.66-1.759 11.795-4.885l55.98-55.989c5.593-5.585 5.593-14.637 0-20.222-3.134-3.134-6.735-5.51-10.578-7.135 4.143-1.759 8.569-2.634 12.995-2.634 8.535 0 17.071 3.259 23.581 9.769 5.585 5.585 5.585 14.637 0 20.222z"/></g></g></g></g><g><path d="m327.931 222.418c-12.646-4.733-24.455-10.546-35.333-17.359 28.522-32.617 43.949-71.872 43.949-113.002 0-2.009-.038-4.187-.111-6.472-.675-21.049-9.379-40.709-24.509-55.362-15.129-14.653-35.06-22.723-56.119-22.723-21.015 0-40.905 8.036-56.023 22.629-15.554 15.015-24.152 35.81-24.661 57.424-.037 1.573-.056 3.082-.056 4.505 0 41.132 15.428 80.388 43.952 113.005-10.87 6.808-22.677 12.621-35.327 17.358l-13.005 4.87c-5.233 1.96-7.887 7.791-5.927 13.024l9.739 26.008c1.96 5.233 7.791 7.887 13.024 5.927l13.005-4.87c20.13-7.538 38.65-17.321 55.281-29.179 16.645 11.865 35.169 21.65 55.291 29.182l13.006 4.867c5.233 1.958 11.064-.696 13.022-5.93l9.735-26.011c1.959-5.233-.696-11.064-5.929-13.023zm-104.767-135.293c.57-17.729 14.909-31.616 32.644-31.616s32.074 13.887 32.644 31.617c.056 1.776.086 3.434.086 4.931 0 29.549-11.488 58.087-32.73 82.124-21.243-24.037-32.73-52.576-32.73-82.124 0-1.496.029-3.155.086-4.932z" fill="#fb3a82"/><path d="m322.275 158.92c4.37-14.89 6.62-30.32 6.62-46.03 0-2.01-.03-4.18-.11-6.47-.67-21.05-9.38-40.71-24.51-55.36s-35.06-22.72-56.12-22.72c-21.01 0-40.9 8.03-56.02 22.62-6.08 5.88-11.1 12.64-14.99 19.99 3.43-15.43 11.13-29.71 22.64-40.82 15.12-14.59 35.01-22.63 56.02-22.63 21.06 0 40.99 8.07 56.12 22.72 15.13 14.66 23.84 34.32 24.51 55.37.07 2.28.11 4.46.11 6.47 0 23.17-4.89 45.73-14.27 66.86z" fill="#fb1466"/><path d="m346.865 240.31-9.734 26.013c-1.963 5.231-7.791 7.882-13.022 5.929l-13.012-4.867c-20.034-7.508-38.499-17.251-55.093-29.039-.061-.051-.132-.101-.192-.142 23.211-15.481 36.779-33.147 36.779-33.147h.01c.01.01.03.02.041.02 10.867 6.799 22.664 12.617 35.292 17.342l13.002 4.867c5.231 1.955 7.891 7.793 5.929 13.024z" fill="#fb1466"/><path d="m318.028 218.415c-2.621 3.268-16.128 19.497-37.811 34.958-8.519-4.583-16.674-9.653-24.405-15.167 23.211-15.481 36.779-33.147 36.779-33.147h.01c.01.01.03.02.041.02 7.973 4.998 16.452 9.45 25.386 13.336z" fill="#e01058"/></g></g><g><path d="m171.616 455.716-68.74-68.74c-3.999-3.999-10.483-3.999-14.483 0l-13.106 13.106c-3.999 3.999-3.999 10.483 0 14.483l68.74 68.74c3.999 3.999 10.483 3.999 14.483 0l13.106-13.106c4-3.999 4-10.483 0-14.483z" fill="#31a7fb"/><path d="m171.615 470.2-13.1 13.11c-4 3.99-10.49 3.99-14.49 0l-68.74-68.74 48.19 48.18c4 4 10.48 4 14.48 0l13.11-13.1c3.88-3.87 4-10.09.36-14.11l20.19 20.18c4 4 4 10.48 0 14.48z" fill="#31a7fb"/><g><path d="m459.032 306.06c-7.714-7.714-17.97-11.962-28.879-11.962-5.875 0-11.555 1.242-16.756 3.584-10.92-4.889-23.428-4.612-34.043.314-15.592-7.375-34.02-4.226-46.31 8.064l-6.506 6.506c-8.741-8.95-20.927-14.52-34.396-14.52h-86.984c-14.525 0-28.181 5.657-38.452 15.928l-63.993 63.993c-6.489-2.816-14.324-1.59-19.621 3.707l-13.108 13.106c-5.296 5.297-6.521 13.132-3.706 19.621l-17.488 17.488c-2.929 2.929-2.929 7.678 0 10.606 1.464 1.464 3.384 2.197 5.303 2.197s3.839-.732 5.303-2.197l16.607-16.607 29.256 29.255c2.929 2.929 7.678 2.929 10.606 0 2.929-2.929 2.929-7.678 0-10.606l-35.274-35.274c-1.069-1.069-1.069-2.808 0-3.876l13.106-13.106c1.068-1.068 2.808-1.068 3.876 0l68.739 68.74c1.069 1.069 1.069 2.808 0 3.876l-13.107 13.106c-.698.698-1.514.802-1.938.802s-1.239-.104-1.938-.803l-8.062-8.061c-2.929-2.93-7.677-2.929-10.607 0-2.929 2.929-2.928 7.678 0 10.607l2.042 2.042-16.607 16.607c-2.929 2.929-2.929 7.678 0 10.606 1.464 1.464 3.384 2.197 5.303 2.197s3.839-.732 5.303-2.197l17.479-17.479c2.207.963 4.605 1.48 7.085 1.48 4.739 0 9.194-1.845 12.544-5.196l13.107-13.106c5.296-5.297 6.521-13.132 3.706-19.621l50.092-50.092c3.76-3.76 8.759-5.831 14.076-5.831h57.281c4.142 0 7.5-3.358 7.5-7.5s-3.358-7.5-7.5-7.5h-57.281c-9.324 0-18.09 3.631-24.683 10.224l-49.211 49.211-56.702-56.702 63.112-63.112c7.438-7.438 17.327-11.534 27.846-11.534h86.984c18.256 0 33.108 14.853 33.108 33.109 0 3.734-3.039 6.773-6.773 6.773h-86.608c-4.142 0-7.5 3.358-7.5 7.5s3.358 7.5 7.5 7.5h86.608c9.948 0 18.353-6.708 20.944-15.836h33.929c1.989 0 3.897-.79 5.303-2.197l33.229-33.229c4.881-4.881 11.37-7.569 18.272-7.569 6.903 0 13.392 2.688 18.273 7.569 2.652 2.652 2.652 6.967 0 9.619l-55.989 55.988c-1.731 1.732-4.034 2.686-6.484 2.686h-47.951c-4.142 0-7.5 3.358-7.5 7.5s3.358 7.5 7.5 7.5h47.951c6.457 0 12.526-2.514 17.091-7.08l55.989-55.988c8.504-8.499 8.504-22.33.004-30.83zm-115.382 10.607c5.661-5.662 13.38-8.243 20.967-7.437l-25.703 25.703c-.834-3.475-2.04-6.806-3.585-9.945zm26.592 20.425h-12.275l20.425-20.425c5.288-5.287 12.56-7.87 19.758-7.482z"/><path d="m223.001 211.419c24.032-14.559 37.06-30.524 38.596-32.466 22.531-25.579 34.441-55.621 34.441-86.896 0-1.558-.03-3.296-.089-5.172-.701-21.8-18.332-38.876-40.14-38.876-21.809 0-39.44 17.076-40.14 38.873-.06 1.849-.09 3.59-.09 5.175 0 29.312 10.463 57.541 30.326 82.028-4.6 4.871-13.142 13.031-25.37 21.137-24.856-30.438-37.965-65.973-37.965-103.165 0-1.367.019-2.816.054-4.328.476-20.197 8.421-38.737 22.372-52.204 13.709-13.235 31.756-20.525 50.812-20.525 19.101 0 37.178 7.32 50.901 20.611 10.292 9.967 17.375 22.571 20.483 36.449.906 4.042 4.916 6.587 8.958 5.68 4.042-.905 6.585-4.916 5.68-8.958-3.749-16.741-12.285-31.938-24.685-43.946-16.536-16.016-38.319-24.836-61.337-24.836-22.964 0-44.71 8.784-61.232 24.733-16.809 16.227-26.38 38.474-26.95 62.643-.039 1.635-.058 3.203-.058 4.682 0 40.051 13.813 78.267 40.041 111.053-8.364 4.69-17.26 8.809-26.546 12.287l-13.004 4.87c-4.407 1.65-7.908 4.918-9.857 9.201-1.95 4.283-2.114 9.069-.464 13.477l9.739 26.008c2.647 7.069 9.379 11.441 16.518 11.441 2.048 0 4.131-.36 6.16-1.12l13.004-4.87c18.94-7.092 36.628-16.187 52.652-27.067 16.034 10.886 33.725 19.981 52.662 27.07l13.006 4.867c9.097 3.403 19.269-1.228 22.675-10.325l9.735-26.011c3.404-9.098-1.227-19.27-10.325-22.675l-13.005-4.868c-9.285-3.475-18.185-7.595-26.555-12.289 22.781-28.52 36.351-61.566 39.38-96.102.362-4.126-2.689-7.765-6.816-8.126-4.139-.362-7.765 2.69-8.126 6.816-2.996 34.163-17.642 67.18-41.789 94.794-.129.167-13.395 17.076-35.196 31.607-16.089 11.472-34.109 20.98-53.558 28.263l-13.004 4.87c-.884.332-1.634.099-2.002-.069-.369-.168-1.037-.581-1.368-1.465l-9.739-26.008c-.331-.884-.099-1.634.069-2.003s.581-1.037 1.465-1.367l13.005-4.87c12.991-4.869 25.399-10.976 36.676-18.028zm71.211 3.353c9.751 5.655 20.175 10.586 31.09 14.67l13.005 4.868c1.352.506 2.041 2.018 1.534 3.37l-9.734 26.011c-.507 1.353-2.018 2.042-3.37 1.535l-13.005-4.867c-15.979-5.981-30.977-13.493-44.758-22.342 11.838-9.013 20.454-17.876 25.238-23.245zm-63.552-127.406c.438-13.658 11.485-24.357 25.148-24.357s24.709 10.699 25.148 24.354c.054 1.715.082 3.294.082 4.694 0 24.95-8.692 49.118-25.229 70.385-16.538-21.266-25.23-45.435-25.23-70.385-.001-1.423.027-3 .081-4.691z"/></g></g></g></svg>