<?xml version="1.0" standalone="no"?>
<!DOCTYPE svg PUBLIC "-//W3C//DTD SVG 20010904//EN"
 "http://www.w3.org/TR/2001/REC-SVG-20010904/DTD/svg10.dtd">
<svg version="1.0" xmlns="http://www.w3.org/2000/svg"
 width="500.000000pt" height="500.000000pt" viewBox="0 0 500.000000 500.000000"
 preserveAspectRatio="xMidYMid meet">

<g transform="translate(0.000000,500.000000) scale(0.100000,-0.100000)"
fill="#000000" stroke="none">
<path d="M2462 3951 c-13 -30 -8 -204 6 -208 7 -3 12 4 12 19 0 52 11 68 45
68 40 0 65 -22 65 -56 0 -23 24 -43 37 -31 3 3 -2 26 -10 51 -14 40 -14 49 -1
75 12 23 12 34 3 55 -13 28 -24 32 -102 39 -38 4 -50 1 -55 -12z m121 -28 c11
-7 8 -48 -5 -61 -7 -7 -29 -12 -50 -12 l-38 0 0 46 0 46 43 -7 c23 -4 45 -9
50 -12z"/>
<path d="M2130 3928 c-25 -5 -48 -13 -52 -17 -8 -7 24 -197 35 -207 8 -9 112
15 132 30 25 18 23 77 -4 94 -15 10 -18 21 -14 46 4 27 1 36 -18 50 -13 9 -26
16 -29 15 -3 -1 -25 -6 -50 -11z m66 -43 c9 -22 -12 -42 -47 -47 -24 -4 -30
-1 -35 18 -3 13 -3 28 1 33 10 17 75 13 81 -4z m22 -77 c15 -15 16 -45 1 -54
-6 -4 -26 -10 -45 -14 -36 -8 -44 0 -44 45 0 23 3 25 66 34 5 0 15 -4 22 -11z"/>
<path d="M2857 3828 c-32 -44 -61 -87 -64 -94 -8 -21 17 -17 35 6 15 17 22 18
65 9 41 -9 49 -15 54 -40 3 -16 12 -29 19 -29 17 0 17 1 -4 125 -13 71 -22
101 -32 102 -9 2 -40 -32 -73 -79z m73 -18 c7 -39 6 -41 -14 -36 -11 3 -27 6
-33 6 -7 0 -13 5 -13 10 0 14 42 71 48 65 3 -2 8 -23 12 -45z"/>
<path d="M1817 3827 c-3 -8 -8 -39 -12 -70 -4 -32 -11 -57 -16 -57 -5 0 -34
16 -65 37 -79 52 -85 37 -29 -82 31 -66 49 -95 56 -88 6 6 0 31 -20 76 -17 37
-27 67 -23 67 4 0 24 -12 45 -26 21 -14 43 -24 50 -21 6 2 17 28 22 58 l11 54
32 -68 c20 -43 37 -67 44 -64 17 6 16 10 -31 111 -39 84 -53 100 -64 73z"/>
<path d="M3218 3775 c-53 -29 -72 -99 -43 -154 22 -43 115 -81 115 -47 0 7
-14 17 -31 22 -70 20 -86 88 -34 140 30 30 64 31 99 3 36 -29 55 -11 22 20
-31 29 -92 36 -128 16z"/>
<path d="M1400 3604 c-25 -20 -47 -40 -48 -45 -5 -12 110 -168 124 -169 15 0
104 68 104 80 0 17 -20 11 -54 -15 -40 -31 -46 -31 -68 -1 -17 24 -17 25 17
51 19 14 35 30 35 36 0 15 -23 10 -50 -11 -32 -25 -42 -25 -59 2 -12 20 -10
24 28 56 23 18 39 38 35 43 -8 14 -15 11 -64 -27z"/>
<path d="M3498 3550 c-32 -44 -58 -84 -58 -89 0 -5 23 -26 51 -46 35 -27 53
-35 61 -27 7 7 -2 19 -30 39 -47 32 -49 36 -24 67 l18 23 34 -23 c39 -27 50
-30 50 -11 0 6 -14 21 -30 32 -33 22 -36 31 -15 59 14 19 16 18 54 -7 42 -28
61 -33 61 -18 0 11 -93 81 -106 81 -5 0 -35 -36 -66 -80z"/>
<path d="M1950 2520 l0 -760 505 0 505 0 0 75 0 75 -430 0 -430 0 0 270 0 270
390 0 390 0 0 75 0 75 -390 0 -390 0 0 265 0 265 425 0 425 0 0 75 0 75 -500
0 -500 0 0 -760z"/>
</g>
</svg>
