<?xml version="1.0" standalone="no"?>
<!DOCTYPE svg PUBLIC "-//W3C//DTD SVG 20010904//EN"
 "http://www.w3.org/TR/2001/REC-SVG-20010904/DTD/svg10.dtd">
<svg version="1.0" xmlns="http://www.w3.org/2000/svg"
 width="500.000000pt" height="500.000000pt" viewBox="0 0 500.000000 500.000000"
 preserveAspectRatio="xMidYMid meet">

<g transform="translate(0.000000,500.000000) scale(0.100000,-0.100000)"
fill="#000000" stroke="none">
<path d="M2137 4133 c-2 -4 -6 -75 -8 -158 -3 -128 -2 -150 11 -150 11 0 16
15 18 64 l3 63 67 -7 c75 -7 92 -21 92 -70 0 -39 22 -70 43 -62 15 5 15 9 2
34 -8 15 -15 40 -15 54 0 15 -7 32 -15 39 -13 11 -12 16 10 42 33 39 33 88 1
125 -23 26 -30 28 -114 31 -49 2 -92 0 -95 -5z m181 -45 c20 -17 15 -75 -9
-99 -16 -16 -29 -20 -51 -15 -17 3 -43 6 -59 6 l-29 0 0 66 0 66 68 -7 c37 -4
73 -12 80 -17z"/>
<path d="M1740 4093 c-36 -8 -69 -18 -73 -22 -8 -8 50 -290 63 -304 4 -5 43
-1 86 9 81 18 134 53 134 89 0 33 -30 85 -54 95 -24 9 -24 10 -10 38 18 37 3
85 -32 101 -30 13 -32 13 -114 -6z m106 -48 c25 -38 10 -62 -48 -80 -63 -18
-78 -19 -78 -2 0 6 -3 28 -6 48 -6 35 -5 37 32 47 63 16 82 14 100 -13z m37
-117 c23 -18 30 -60 14 -81 -14 -20 -127 -51 -139 -39 -4 4 -10 30 -13 58 l-7
51 53 10 c75 14 73 14 92 1z"/>
<path d="M2610 3926 c-57 -68 -106 -129 -108 -135 -8 -23 27 -10 51 19 30 36
35 36 114 9 l61 -20 6 -50 c6 -47 21 -64 32 -35 3 7 -1 85 -8 172 -10 126 -16
159 -28 162 -9 1 -58 -48 -120 -122z m112 -19 c2 -40 -1 -67 -7 -66 -5 0 -31
8 -58 17 l-47 17 47 57 c27 31 51 54 55 50 3 -4 8 -37 10 -75z"/>
<path d="M1385 3971 c-4 -8 -23 -172 -25 -214 0 -5 -43 14 -95 42 -104 56
-115 59 -115 35 0 -27 141 -274 156 -274 23 0 17 17 -41 120 -30 54 -55 101
-55 105 0 4 34 -12 75 -34 41 -23 80 -41 88 -41 15 0 27 59 27 136 0 24 3 44
8 44 4 0 31 -45 61 -101 38 -70 59 -99 70 -96 22 5 18 16 -61 160 -67 122 -80
138 -93 118z"/>
<path d="M3057 3846 c-133 -48 -159 -218 -46 -293 43 -29 104 -36 104 -13 0 8
-13 17 -30 20 -68 14 -105 59 -105 127 0 66 65 133 130 133 30 0 75 -25 98
-55 11 -14 25 -25 30 -25 23 0 21 20 -4 50 -48 56 -116 78 -177 56z"/>
<path d="M875 3610 l-70 -70 110 -110 c60 -61 114 -110 120 -110 15 0 135 123
135 138 0 24 -27 11 -75 -38 -27 -27 -54 -50 -60 -50 -11 0 -75 61 -75 72 0 3
20 26 45 50 25 25 45 50 45 57 0 23 -25 10 -72 -36 l-48 -47 -37 37 -37 37 52
53 c46 47 67 87 44 87 -4 0 -39 -32 -77 -70z"/>
<path d="M3330 3508 c-60 -56 -110 -106 -110 -112 1 -6 28 -40 60 -75 42 -44
64 -61 76 -57 13 5 8 15 -28 57 -66 78 -65 72 -22 112 l39 36 51 -51 c32 -31
54 -46 58 -39 8 12 -19 54 -53 85 -29 27 -27 39 16 72 l37 28 53 -59 c41 -45
56 -56 65 -47 9 9 6 18 -12 39 -55 63 -105 113 -112 113 -4 0 -57 -46 -118
-102z"/>
<path d="M655 3188 c-113 -252 -161 -522 -144 -808 23 -371 176 -729 433
-1015 84 -94 201 -195 224 -195 12 0 6 8 -18 27 -19 15 -75 65 -124 113 -501
483 -640 1224 -352 1874 29 66 29 66 17 66 -4 0 -21 -28 -36 -62z"/>
<path d="M3678 3214 c32 -63 89 -223 112 -314 98 -385 46 -826 -137 -1170 -99
-185 -210 -325 -375 -476 -48 -43 -83 -81 -78 -82 29 -10 253 218 352 359 78
109 174 295 218 423 17 49 42 146 57 215 23 111 27 149 27 316 0 209 -14 315
-65 486 -35 118 -100 271 -117 277 -9 3 -7 -8 6 -34z"/>
<path d="M2800 3088 c0 -17 3 -19 9 -9 5 7 14 10 20 7 6 -4 11 -5 11 -2 0 3
-9 10 -20 16 -17 9 -20 8 -20 -12z"/>
<path d="M2850 3077 c0 -3 12 -12 26 -22 15 -9 23 -12 20 -6 -7 11 -46 35 -46
28z"/>
<path d="M2960 2985 c30 -30 57 -55 59 -55 3 0 -19 25 -49 55 -30 30 -57 55
-59 55 -3 0 19 -25 49 -55z"/>
<path d="M2771 3003 c-10 -26 -10 -27 4 -9 8 11 15 23 15 28 0 15 -7 8 -19
-19z"/>
<path d="M2672 2886 c-45 -46 -82 -87 -82 -91 0 -5 1 -6 3 -4 1 2 40 43 87 92
46 48 81 87 79 87 -3 0 -42 -38 -87 -84z"/>
<path d="M3035 2896 c10 -14 19 -26 22 -26 7 0 -17 39 -28 46 -6 3 -3 -5 6
-20z"/>
<path d="M3092 2795 c0 -5 6 -26 13 -45 7 -19 14 -28 14 -20 0 8 -6 29 -14 45
-7 17 -13 26 -13 20z"/>
<path d="M2570 2759 c-7 -11 -10 -23 -7 -25 2 -2 9 7 15 21 14 30 7 33 -8 4z"/>
<path d="M3128 2620 c3 -52 6 -97 8 -99 7 -8 2 134 -6 164 -4 17 -5 -13 -2
-65z"/>
<path d="M2536 2659 c-8 -40 -7 -139 2 -161 4 -9 7 30 7 87 0 58 -1 105 -1
105 -1 0 -4 -14 -8 -31z"/>
<path d="M1055 2517 c-47 -73 -70 -190 -54 -287 5 -36 13 -68 17 -71 4 -3 75
1 157 9 193 20 342 8 437 -35 101 -45 311 -206 428 -328 56 -58 111 -86 225
-115 53 -13 135 -45 198 -76 60 -30 127 -57 150 -59 130 -14 341 -26 362 -21
38 10 31 41 -17 76 -22 16 -49 30 -59 30 -54 0 -44 14 37 55 48 24 102 58 120
76 32 31 33 34 17 51 -25 28 -80 22 -163 -18 -41 -19 -97 -38 -125 -41 l-50
-5 46 43 c52 50 124 144 133 175 4 14 0 29 -12 44 -24 30 -52 21 -87 -28 -15
-20 -39 -47 -53 -59 l-26 -22 -21 37 c-21 36 -21 38 -3 72 22 43 22 52 0 80
-22 27 -45 19 -71 -26 -11 -19 -25 -34 -30 -34 -27 0 -284 181 -374 263 -137
124 -161 142 -237 167 -59 20 -77 22 -195 16 -125 -7 -197 -2 -688 48 -41 4
-49 2 -62 -17z m320 -29 c135 -14 280 -22 405 -22 l195 -1 65 -32 c42 -21 103
-67 170 -129 69 -64 169 -140 294 -222 189 -126 221 -156 199 -190 -21 -35
-66 -26 -234 51 -141 65 -309 127 -340 127 -27 0 -1 -22 64 -53 97 -47 148
-86 197 -151 56 -77 71 -89 190 -156 101 -57 111 -60 219 -74 115 -15 181 -42
181 -72 0 -18 -25 -18 -241 0 l-165 14 -100 51 c-60 31 -138 61 -199 77 -128
34 -157 49 -236 125 -150 145 -312 268 -422 320 -93 43 -255 57 -442 37 -92
-10 -142 -11 -147 -5 -25 39 -16 195 16 272 25 59 33 65 79 60 23 -3 137 -15
252 -27z m1333 -417 c4 -26 -23 -71 -42 -71 -32 0 -36 26 -10 64 27 40 47 43
52 7z m186 -66 c7 -20 -2 -43 -37 -90 -71 -93 -146 -155 -191 -155 -8 0 -18
-5 -22 -11 -5 -8 21 -10 92 -7 89 4 107 9 174 41 84 41 154 51 148 20 -4 -24
-140 -105 -213 -127 -89 -29 -134 -19 -265 54 -73 42 -121 76 -139 99 -14 20
-57 66 -94 103 l-68 68 52 -20 c28 -11 71 -34 96 -51 24 -17 51 -28 59 -25 14
5 74 -18 74 -29 0 -3 -19 -15 -42 -27 l-43 -23 49 -3 c29 -2 76 5 119 18 64
20 77 28 146 100 78 81 95 91 105 65z m-286 -156 c-7 -5 -24 -9 -38 -9 -23 1
-24 2 -7 14 10 8 27 11 38 9 16 -5 18 -8 7 -14z"/>
<path d="M3121 2503 c-1 -6 -4 -20 -7 -30 -5 -17 -5 -17 6 0 6 10 9 23 6 30
-3 9 -5 9 -5 0z"/>
<path d="M2550 2464 c0 -6 7 -19 16 -30 14 -18 14 -18 3 6 -14 31 -19 36 -19
24z"/>
<path d="M3038 2369 c-31 -32 -49 -55 -39 -50 18 10 101 97 101 106 0 8 -1 7
-62 -56z"/>
<path d="M2615 2371 c22 -23 49 -47 60 -53 11 -6 18 -9 15 -6 -3 2 -30 26 -60
53 -54 49 -54 49 -15 6z"/>
<path d="M2940 2300 c-8 -5 -10 -10 -5 -10 6 0 17 5 25 10 8 5 11 10 5 10 -5
0 -17 -5 -25 -10z"/>
<path d="M2758 2283 c7 -3 16 -2 19 1 4 3 -2 6 -13 5 -11 0 -14 -3 -6 -6z"/>
<path d="M2835 2280 l-50 -7 45 0 c25 -1 56 3 70 7 31 10 8 10 -65 0z"/>
<path d="M1481 1158 c-5 -13 -23 -54 -40 -92 -26 -58 -34 -67 -52 -63 -11 3
-19 1 -17 -4 5 -14 171 -88 183 -81 5 3 -20 19 -55 34 -35 16 -66 30 -67 32
-5 4 21 66 28 66 4 0 26 -9 50 -20 57 -26 69 -25 69 4 0 32 -20 44 -36 22 -11
-16 -15 -16 -43 -1 -17 8 -31 17 -31 19 0 3 9 25 20 50 11 27 15 48 10 51 -6
4 -14 -4 -19 -17z"/>
<path d="M2842 1124 c-23 -16 -29 -48 -12 -59 16 -10 12 -19 -16 -32 -25 -12
-27 -11 -47 37 -12 28 -25 50 -29 50 -13 0 -10 -11 28 -104 19 -49 34 -89 32
-91 -9 -8 -48 -25 -56 -25 -5 0 -26 41 -46 90 -21 50 -42 90 -47 90 -13 0 -13
-2 28 -100 36 -88 36 -91 17 -105 -10 -8 -14 -15 -9 -15 20 0 165 63 165 72 0
6 -6 8 -14 5 -10 -4 -19 5 -27 30 -10 32 -9 38 7 50 31 23 54 16 54 -15 0 -34
16 -52 46 -52 27 0 72 34 57 43 -6 4 -16 0 -23 -8 -7 -8 -23 -15 -36 -15 -19
0 -24 5 -24 25 0 13 8 29 18 34 9 6 13 11 7 12 -5 1 -14 2 -20 4 -5 1 -15 3
-22 3 -21 3 -36 41 -22 58 17 21 52 17 94 -11 20 -14 35 -20 33 -13 -7 19 -68
58 -92 58 -12 0 -32 -7 -44 -16z"/>
<path d="M1815 1038 c-9 -39 -35 -169 -35 -175 0 -3 -9 -3 -20 0 -11 3 -20 1
-20 -4 0 -9 7 -11 118 -34 87 -18 82 -17 82 -5 0 6 -9 10 -20 10 -21 0 -25 16
-14 58 4 12 12 22 20 22 20 0 26 17 14 40 -19 35 -38 23 -49 -30 -6 -28 -11
-58 -11 -66 0 -12 -8 -13 -37 -8 -21 4 -39 8 -41 9 -1 1 7 46 18 100 23 114
23 105 10 105 -5 0 -12 -10 -15 -22z"/>
<path d="M2422 933 c4 -54 4 -101 0 -104 -4 -4 -55 -10 -114 -14 l-108 -7 0
25 c0 34 44 57 82 43 19 -7 35 -6 53 2 38 18 34 65 -10 109 -19 19 -39 32 -45
28 -5 -3 6 -20 26 -37 26 -23 34 -38 32 -57 -2 -22 -8 -26 -33 -26 -23 0 -31
5 -33 23 -4 24 -22 31 -22 9 0 -16 -32 -47 -48 -47 -8 0 -12 22 -12 65 0 49
-3 65 -14 65 -8 0 -13 -7 -11 -17 2 -10 6 -55 9 -99 5 -77 4 -82 -17 -92 -21
-10 -21 -11 6 -11 18 -1 45 -14 68 -35 98 -83 254 -66 234 26 -4 17 -2 28 4
28 6 0 11 5 11 10 0 6 -6 10 -14 10 -14 0 -26 67 -26 153 0 31 -4 47 -13 47
-10 0 -11 -21 -5 -97z m18 -143 c24 -45 -24 -77 -101 -67 -39 5 -126 53 -116
64 3 2 45 8 94 12 48 5 93 9 100 10 7 0 17 -8 23 -19z"/>
<path d="M2187 723 c-12 -11 -8 -23 8 -23 8 0 15 7 15 15 0 16 -12 20 -23 8z"/>
</g>
</svg>
