<svg id="Capa_1" enable-background="new 0 0 512 512" height="512" viewBox="0 0 512 512" width="512" xmlns="http://www.w3.org/2000/svg"><g><g><g><path d="m305.097 317.187s.001 0 0 0c-13.406-6.464-22.658-20.184-22.658-36.064v-15.51h-12.079c-9.191 4.6-19.556 7.197-30.534 7.197-10.978 0-21.344-2.601-30.539-7.197h-16.313c-14.127 0-27.084 4.972-37.242 13.251l130.702 68.065c5.206-11.731 11.512-21.83 18.663-29.742z" fill="#80d261"/></g><g fill="#80d261"><path d="m146.854 477.383c-4.41 0-8.721-.414-12.913-1.17v23.287c0 2.761 2.239 5 5 5h115.09l-44.563-63.233c-12.509 21.592-35.865 36.116-62.614 36.116z"/><path d="m129.138 327.281-29.37 77.79h84.192z"/></g></g><g fill="#68ca44"><g><path d="m209.288 265.612h-16.313c-14.127 0-27.085 4.972-37.242 13.251l22.622 11.781c8.135-11.526 20.289-20.006 34.426-23.399-1.183-.511-2.345-1.059-3.493-1.633z"/><path d="m129.138 327.281-29.37 77.79h33.613l17.644-46.733z"/></g><path d="m167.554 499.5v-25.13c-6.559 1.956-13.505 3.013-20.7 3.013-4.41 0-8.721-.414-12.913-1.17v23.287c0 2.761 2.239 5 5 5h33.613c-2.761 0-5-2.239-5-5z"/></g><path d="m239.827 272.809c-10.227 0-19.921-2.26-28.634-6.283l24.021 41.606c2.05 3.551 7.175 3.551 9.225 0l24.021-41.606c-8.712 4.023-18.406 6.283-28.633 6.283z" fill="#ffc495"/><g><path d="m221.589 53.817h36.476c8.31 0 16.283 1.429 23.706 4.026 3.445-5.146 5.461-11.318 5.461-17.94 0-17.822-14.582-32.404-32.404-32.404h-30.003c-17.822 0-32.404 14.582-32.404 32.404 0 6.622 2.016 12.795 5.461 17.94 7.424-2.597 15.397-4.026 23.707-4.026z" fill="#a44f3e"/><path d="m221.166 53.828c-2.027-4.224-3.166-8.948-3.166-13.924 0-17.822 14.582-32.404 32.404-32.404h-25.578c-17.822 0-32.404 14.582-32.404 32.404 0 6.622 2.016 12.795 5.461 17.94 7.297-2.553 15.126-3.969 23.283-4.016z" fill="#883f2e"/><path d="m162.403 159.593h10.017v-8.359c0-1.574.928-3.007 2.365-3.651l73.857-33.07c2.256-1.01 4.654-1.522 7.125-1.522h34.03c9.614 0 17.437 7.822 17.437 17.437v29.166h10.017c4.592 0 8.894 1.26 12.586 3.445v-37.449c0-39.639-32.133-71.772-71.772-71.772h-36.476c-39.639 0-71.772 32.133-71.772 71.772v37.449c3.692-2.186 7.994-3.446 12.586-3.446z" fill="#883f2e"/><path d="m162.403 158.593h9.017v-7.359c0-1.971 1.158-3.758 2.957-4.563l8.623-3.861v-17.22c0-39.639 32.133-71.772 71.772-71.772h-33.183c-39.639 0-71.772 32.133-71.772 71.772v36.285c3.723-2.087 8.014-3.282 12.586-3.282z" fill="#6d3326"/><g fill="#ffc495"><path d="m171.419 204.401v-45.808h-9.017c-14.242 0-25.787 11.545-25.787 25.787v10.832c0 14.242 11.545 25.787 25.787 25.787h11.055c-1.324-5.314-2.038-10.872-2.038-16.598z"/><path d="m342.63 199.761c.263-1.477.408-2.996.408-4.548v-10.833c0-14.242-11.545-25.787-25.787-25.787h-9.017v45.808c0 2.234-.112 4.441-.323 6.619 9.806-6.999 21.779-11.154 34.719-11.259z"/></g><path d="m307.91 211.022c.209-2.179.325-4.386.325-6.62v-73.974c0-10.182-8.254-18.436-18.436-18.436h-34.031c-2.597 0-5.164.549-7.534 1.61l-73.857 33.07c-1.799.806-2.957 2.593-2.957 4.563v53.167c0 37.78 30.627 68.407 68.407 68.407 16.148 0 30.979-5.609 42.68-14.966.816-19.311 10.647-36.287 25.403-46.821z" fill="#ffe6c3"/><g><path d="m265.408 264c-37.781 0-68.408-30.627-68.408-68.407v-59.051l-22.624 10.13c-1.799.806-2.957 2.593-2.957 4.563v53.167c0 37.78 30.627 68.407 68.407 68.407 12.643 0 24.477-3.444 34.638-9.424-2.964.392-5.984.615-9.056.615z" fill="#ffd2a9"/></g></g><path d="m395.781 404.999v-8.967c0-6.569 5.344-11.913 11.913-11.913h3.648c-6.228-31.568-19.123-57.521-35.677-72.44-9.404 5.985-20.563 9.458-32.536 9.458h-20.675c-6.219 0-12.107-1.419-17.358-3.951-7.338 8.12-13.796 18.528-19.077 30.653z" fill="#00a7d3"/><path d="m314.062 362.443c5.311-16.385 12.577-30.496 21.233-41.305h-12.841c-6.219 0-12.107-1.419-17.358-3.951-7.338 8.12-13.796 18.529-19.077 30.653z" fill="#0096d3"/><path d="m343.13 321.137h-17.735l14.841 25.706c2.05 3.551 7.175 3.551 9.225 0l17.699-30.655c-7.369 3.182-15.493 4.949-24.03 4.949z" fill="#ffb392"/><g><path d="m343.13 321.137c34.469 0 62.226-28.735 60.624-63.557-1.43-31.092-26.666-56.328-57.758-57.758-34.822-1.602-63.557 26.156-63.557 60.624v20.675c0 22.1 17.915 40.015 40.015 40.015h20.676z" fill="#ffc495"/></g><g><path d="m307.619 289.366v-20.676c0-34.469 28.735-62.226 63.557-60.624.951.044 1.897.111 2.836.199-8.294-4.942-17.837-7.975-28.016-8.443-34.822-1.602-63.557 26.156-63.557 60.625v20.675c0 22.1 17.915 40.015 40.015 40.015h.864c-9.541-7.313-15.699-18.82-15.699-31.771z" fill="#ffb392"/></g><path d="m407.694 437.353c-7.132 0-12.913-5.781-12.913-12.913v-21.09l-239.714-124.834c-5.18-2.698-11.567-.721-14.318 4.432l-15.38 28.813c-1.895 3.55-1.628 7.864.69 11.153l57.9 82.158h32.135c1.708 0 3.077 1.426 3.005 3.132-.512 12.012-3.955 23.266-9.632 33.064l44.563 63.233h109.68c28.571 0 51.732-23.161 51.732-51.732v-15.415h-7.748z" fill="#fac600"/><path d="m159.945 322.913c-2.318-3.289-2.585-7.603-.69-11.153l12.975-24.307-17.163-8.938c-5.18-2.698-11.567-.721-14.318 4.432l-15.38 28.813c-1.895 3.55-1.628 7.864.69 11.153l57.9 82.158h32.135c1.708 0 3.077 1.426 3.005 3.132-.512 12.012-3.955 23.266-9.632 33.064l44.563 63.233h33.885z" fill="#e8b800"/><g><g><path d="m342.939 504.5h-66.729v-49.159c0-1.105.895-2 2-2h62.729c1.105 0 2 .895 2 2z" fill="#fd4755"/></g><g><path d="m303.271 453.341h-25.061c-1.105 0-2 .896-2 2v49.159h25.062v-49.159c-.001-1.104.895-2 1.999-2z" fill="#fb2b3a"/></g></g><g><g><path d="m192.344 297.928-21.629 38.51c-.541.963-.199 2.182.764 2.723l55.446 31.141c.963.541 2.182.199 2.723-.764l22.676-40.374z" fill="#fff"/></g><g><path d="m197.021 339.162c-.963-.541-1.305-1.76-.764-2.723l15.849-28.219-19.762-10.291-21.629 38.51c-.541.963-.199 2.182.764 2.723l55.446 31.141c.963.541 2.182.199 2.723-.764l5.146-9.162z" fill="#eaf6ff"/></g></g><g><path d="m424.481 437.353h-16.787c-7.132 0-12.913-5.781-12.913-12.913v-28.408c0-7.132 5.781-12.913 12.913-12.913h16.787c7.132 0 12.913 5.781 12.913 12.913v28.408c0 7.132-5.781 12.913-12.913 12.913z" fill="#ffe6c3"/></g><g><path d="m411.387 424.44v-28.408c0-7.132 5.781-12.913 12.913-12.913h-16.606c-7.132 0-12.913 5.781-12.913 12.913v28.408c0 7.132 5.781 12.913 12.913 12.913h16.606c-7.131 0-12.913-5.781-12.913-12.913z" fill="#ffd2a9"/></g><path d="m216.095 405.071h-138.481c-1.708 0-3.077 1.426-3.005 3.132.607 14.252 5.348 27.43 13.042 38.382l6.742-6.742c5.043-5.043 13.219-5.043 18.262 0l20.088 20.088c4.446 4.446 4.966 11.324 1.573 16.346 4.075.713 8.26 1.105 12.539 1.105 38.887 0 70.605-30.696 72.245-69.18.073-1.705-1.297-3.131-3.005-3.131z" fill="#fe9901"/><g><path d="m94.393 439.844c5.043-5.043 13.219-5.043 18.262 0l2.821 2.821c-6.175-10.119-9.936-21.871-10.473-34.462-.073-1.706 1.297-3.132 3.005-3.132h-30.394c-1.708 0-3.077 1.426-3.005 3.132.607 14.252 5.348 27.43 13.042 38.382z" fill="#fb8801"/></g><g><path d="m132.742 478.193-11.87 11.87c-5.043 5.043-13.219 5.043-18.262 0l-20.088-20.088c-5.043-5.043-5.043-13.219 0-18.262l11.87-11.87c5.043-5.043 13.219-5.043 18.262 0l20.088 20.088c5.043 5.043 5.043 13.219 0 18.262z" fill="#ffe6c3"/></g><g><path d="m103.782 469.975c-5.043-5.043-5.043-13.219 0-18.262l10.371-10.371-1.499-1.499c-5.043-5.043-13.219-5.043-18.262 0l-11.87 11.87c-5.043 5.043-5.043 13.219 0 18.262l20.088 20.088c5.043 5.043 13.219 5.043 18.262 0l1.499-1.499z" fill="#ffd2a9"/></g><g><path d="m206.485 189.734c4.142 0 7.5-3.358 7.5-7.5v-15.037c0-4.142-3.358-7.5-7.5-7.5s-7.5 3.358-7.5 7.5v15.037c0 4.142 3.358 7.5 7.5 7.5z"/><path d="m273.169 189.734c4.143 0 7.5-3.358 7.5-7.5v-15.037c0-4.142-3.357-7.5-7.5-7.5s-7.5 3.358-7.5 7.5v15.037c0 4.142 3.357 7.5 7.5 7.5z"/><path d="m225.009 201.244 9.879 8.645c1.423 1.245 3.183 1.856 4.936 1.856 2.087 0 4.165-.867 5.647-2.561 2.728-3.117 2.412-7.855-.705-10.583l-4.544-3.977 5.519-7.076c2.548-3.266 1.965-7.979-1.301-10.527-3.267-2.546-7.979-1.964-10.526 1.301l-9.879 12.666c-2.447 3.136-2.019 7.637.974 10.256z"/><path d="m226.243 240.146h27.168c4.143 0 7.5-3.358 7.5-7.5s-3.357-7.5-7.5-7.5h-27.168c-4.142 0-7.5 3.358-7.5 7.5s3.358 7.5 7.5 7.5z"/><path d="m424.481 375.619h-7.29c-3.747-16.058-9.26-30.844-16.386-43.569-4.17-7.447-8.761-13.961-13.687-19.494 1.848-1.568 3.63-3.238 5.331-5.018 12.988-13.599 19.664-31.463 18.798-50.302-1.537-33.384-27.847-60.966-60.709-64.564v-8.292c0-10.815-5.187-20.438-13.201-26.522v-26.358h13.631c4.143 0 7.5-3.358 7.5-7.5s-3.357-7.5-7.5-7.5h-14.168c-2.013-17.546-9.776-33.358-21.354-45.519l13.694-13.694c2.929-2.929 2.929-7.678 0-10.606-2.93-2.929-7.678-2.929-10.607 0l-14.433 14.434c-3.761-2.693-7.756-5.078-11.966-7.09 1.67-4.394 2.6-9.149 2.6-14.121-.002-22.004-17.902-39.904-39.905-39.904h-30.003c-22.003 0-39.903 17.901-39.903 39.904 0 4.972.929 9.727 2.599 14.12-15.915 7.607-28.899 20.374-36.806 36.117l-5.444-5.444c-2.929-2.929-7.678-2.929-10.606 0-2.929 2.929-2.929 7.678 0 10.606l10.229 10.229c-1.677 6.409-2.577 13.13-2.577 20.058v32.269c-8.014 6.084-13.201 15.707-13.201 26.522v10.833c0 18.354 14.933 33.287 33.287 33.287h5.461c3.84 11.435 10.347 21.645 18.757 29.929-11.734 1.132-22.737 5.359-32.047 11.952-7.889-1.971-16.455 1.569-20.44 9.034l-15.38 28.813c-3.248 6.085-2.797 13.367 1.176 19.005l.788 1.118-26.133 69.22h-16.97c-2.849 0-5.614 1.181-7.587 3.239-1.971 2.057-3.032 4.869-2.911 7.713.577 13.547 4.494 26.154 10.918 37.073l-.815.815c-7.958 7.959-7.958 20.909 0 28.868l20.088 20.087c3.979 3.979 9.207 5.969 14.434 5.969s10.455-1.99 14.434-5.969l.266-.266v4.4c0 6.893 5.607 12.5 12.5 12.5h41.057c4.142 0 7.5-3.358 7.5-7.5s-3.358-7.5-7.5-7.5h-38.559v-12.306c1.789.121 3.593.189 5.413.189 25.459 0 48.147-11.819 62.765-30.382l29.951 42.5h-24.57c-4.142 0-7.5 3.358-7.5 7.5s3.358 7.5 7.5 7.5h148.71c32.661 0 59.232-26.572 59.232-59.232v-7.915h1.539c11.255 0 20.412-9.157 20.412-20.413v-28.409c.001-11.257-9.157-20.414-20.412-20.414zm-81.37-168.363c.843 0 1.691.02 2.54.059 27.132 1.248 49.363 23.479 50.611 50.611.677 14.705-4.53 28.645-14.661 39.252-10.137 10.614-23.8 16.46-38.472 16.46h-20.675c-17.929 0-32.516-14.586-32.516-32.515v-20.675c0-14.672 5.846-28.335 16.46-38.472 9.997-9.547 22.949-14.72 36.713-14.72zm8.513 120.843-6.775 11.734-6.464-11.196h4.745c2.867 0 5.698-.195 8.494-.538zm-120.479 21.52.827.465-6.171 10.987-5.093-2.86 1.017-1.81c2.028-3.612.745-8.184-2.866-10.212-3.612-2.03-8.184-.746-10.212 2.866l-1.017 1.81-9.512-5.343 1.016-1.81c2.028-3.612.745-8.184-2.866-10.212-3.613-2.03-8.184-.745-10.212 2.866l-1.017 1.81-5.093-2.86 6.17-10.986.827.465c1.162.653 2.422.962 3.666.962 2.623 0 5.17-1.379 6.546-3.829 2.028-3.612.745-8.184-2.866-10.212l-.828-.465 1.862-3.315 46.669 24.304-2.676 4.765-.827-.464c-3.612-2.029-8.184-.745-10.212 2.866-2.026 3.612-.743 8.184 2.868 10.212zm6.799-45.237.003-.006-.003.006c0-.001 0-.001 0 0zm1.883-3.261-12.626-21.869c4.108.691 8.325 1.057 12.626 1.057 4.304 0 8.521-.37 12.63-1.063zm11.108 10.76 22.383-38.769h1.621v8.01c0 15.477 7.446 29.236 18.936 37.913-2.961 3.958-5.777 8.294-8.421 13.016-.846 1.51-1.661 3.06-2.458 4.63l-37.684-19.625c2.311-1.089 4.28-2.849 5.623-5.175zm84.603-127.501v4.944l-19.804-6.592v-16.639h1.517c10.084 0 18.287 8.204 18.287 18.287zm-110.713-169.38h30.003c13.732 0 24.904 11.172 24.904 24.904 0 3.163-.608 6.182-1.689 8.968-6.385-1.664-13.08-2.554-19.979-2.554h-36.476c-6.899 0-13.593.89-19.978 2.554-1.081-2.786-1.689-5.805-1.689-8.968.001-13.733 11.172-24.904 24.904-24.904zm-62.422 198.5c-10.083 0-18.287-8.204-18.287-18.287v-10.833c0-10.083 8.204-18.287 18.287-18.287h1.517v38.308c0 3.081.206 6.113.565 9.099zm16.516-9.099v-51.547l27.656-12.383c3.78-1.693 5.473-6.13 3.78-9.91-1.693-3.781-6.13-5.472-9.91-3.78l-29.135 13.045c-4.447 1.991-7.33 6.404-7.385 11.267h-1.522c-1.729 0-3.427.133-5.086.388v-25.892c0-35.439 28.833-64.272 64.272-64.272h36.476c35.44 0 64.272 28.833 64.272 64.272v25.892c-1.659-.255-3.357-.388-5.086-.388h-1.517v-20.666c0-14.301-11.635-25.937-25.937-25.937h-34.03c-3.677 0-7.243.762-10.599 2.265l-12.767 5.716c-3.78 1.693-5.473 6.129-3.78 9.91 1.692 3.78 6.128 5.473 9.91 3.78l12.767-5.716c1.415-.634 2.919-.955 4.469-.955h34.03c6.03 0 10.937 4.906 10.937 10.937v47.558c-3.348-.253-6.566 1.774-7.675 5.104-1.309 3.93.817 8.177 4.747 9.485l2.928.975v3.583h-14.407c-4.143 0-7.5 3.358-7.5 7.5s3.357 7.5 7.5 7.5h8.71c-11.402 11.338-18.292 25.929-19.782 41.76-9.988 7.176-22.218 11.415-35.428 11.415-33.584.002-60.908-27.321-60.908-60.906zm14.056 68.711h13.36l19.522 33.813-55.138-28.714c6.801-3.275 14.37-5.099 22.256-5.099zm-61.818 70.053 38.342 54.405h-58.882zm-3.718 129.725-11.87 11.87c-2.11 2.11-5.545 2.11-7.655 0l-20.087-20.087c-2.111-2.11-2.111-5.545 0-7.655l11.87-11.87c1.055-1.056 2.441-1.583 3.828-1.583s2.772.528 3.828 1.583l20.087 20.088c2.109 2.109 2.109 5.543-.001 7.654zm81.861-50.39h-39.332c-4.142 0-7.5 3.358-7.5 7.5s3.358 7.5 7.5 7.5h33.068c-1.407 2.441-2.97 4.776-4.672 7h-29.396c-4.142 0-7.5 3.358-7.5 7.5s3.358 7.5 7.5 7.5h13.155c-10.154 6.571-22.261 10.383-35.269 10.383-.964 0-1.922-.027-2.876-.07.2-5.475-1.763-11.015-5.933-15.185l-20.087-20.088c-7.958-7.958-20.909-7.959-28.868 0l-.007.007c-3.422-6.715-5.716-14.119-6.613-21.977h128.77c-.389 3.403-1.052 6.715-1.94 9.93zm126.138 50.589h-.841c-4.143 0-7.5 3.358-7.5 7.5s3.357 7.5 7.5 7.5h.841v8.911h-51.728v-8.911h.841c4.143 0 7.5-3.358 7.5-7.5s-3.357-7.5-7.5-7.5h-.841v-12.248h5.574v1.953c0 4.142 3.357 7.5 7.5 7.5s7.5-3.358 7.5-7.5v-1.953h10.579v1.953c0 4.142 3.357 7.5 7.5 7.5s7.5-3.358 7.5-7.5v-1.953h5.575zm72.504-20.321c0 24.39-19.843 44.232-44.232 44.232h-13.271v-8.911h1.953c4.143 0 7.5-3.358 7.5-7.5s-3.357-7.5-7.5-7.5h-1.953v-17.748c0-5.238-4.262-9.5-9.5-9.5h-11.075v-.841c0-4.142-3.357-7.5-7.5-7.5s-7.5 3.358-7.5 7.5v.841h-10.579v-.841c0-4.142-3.357-7.5-7.5-7.5s-7.5 3.358-7.5 7.5v.841h-11.075c-5.238 0-9.5 4.262-9.5 9.5v17.748h-1.954c-4.143 0-7.5 3.358-7.5 7.5s3.357 7.5 7.5 7.5h1.954v8.911h-10.789l-39.626-56.229c4.859-9.752 7.804-20.655 8.298-32.249.121-2.845-.94-5.656-2.911-7.713-1.972-2.058-4.737-3.238-7.586-3.238h-28.246l-55.659-78.978c-.69-.979-.769-2.244-.205-3.301l15.38-28.813c.81-1.519 2.712-2.106 4.237-1.312l30.411 15.837-1.63 2.902-1.81-1.016c-3.613-2.029-8.184-.745-10.212 2.866-2.028 3.612-.745 8.184 2.866 10.212l1.81 1.017-8.863 15.78c-1.243 2.212-1.55 4.777-.864 7.22s2.281 4.473 4.494 5.716l9.889 5.554-.465.827c-2.028 3.612-.745 8.184 2.866 10.212 1.162.653 2.422.962 3.666.962 2.623 0 5.17-1.379 6.546-3.829l.465-.828 9.512 5.343-.465.827c-2.028 3.612-.745 8.184 2.866 10.212 1.162.653 2.422.962 3.666.962 2.623 0 5.17-1.379 6.546-3.829l.465-.827 9.891 5.555c1.467.823 3.061 1.213 4.634 1.213 3.326 0 6.56-1.747 8.298-4.846l8.864-15.781 1.81 1.016c1.162.652 2.422.962 3.666.962 2.623 0 5.17-1.379 6.546-3.829 2.028-3.611.745-8.184-2.866-10.212l-1.81-1.017 2.909-5.179 79.157 41.222c3.669 1.913 8.202.486 10.116-3.188 1.913-3.674.485-8.203-3.188-10.116l-45.09-23.481c.728-1.435 1.471-2.851 2.242-4.229 2.754-4.917 5.689-9.332 8.769-13.231 4.334 1.461 8.946 2.313 13.733 2.453l12.697 21.992c2.319 4.016 6.473 6.414 11.109 6.413s8.789-2.398 11.107-6.414h-.001l16.472-28.53c.702-.334 1.394-.688 2.084-1.046 4.718 5.005 9.158 11.136 13.206 18.363 6.073 10.845 10.849 23.409 14.244 37.077-6.97 2.049-12.401 7.72-14.102 14.834l-15.398-8.019c-3.671-1.912-8.202-.487-10.116 3.188-1.913 3.674-.485 8.203 3.188 10.116l21.747 11.325v16.54c0 11.255 9.157 20.413 20.413 20.413h.248v7.917zm21.952-28.328c0 2.984-2.428 5.413-5.412 5.413h-16.787c-2.984 0-5.413-2.428-5.413-5.413v-28.409c0-2.984 2.429-5.413 5.413-5.413h16.787c2.984 0 5.412 2.428 5.412 5.413z"/><path d="m305.326 266.395c3.954 3.954 9.148 5.931 14.342 5.931s10.389-1.977 14.343-5.931c2.929-2.929 2.929-7.678 0-10.606-2.93-2.929-7.678-2.929-10.607 0-.999 1-2.326 1.55-3.735 1.55-1.408 0-2.735-.551-3.734-1.55-2.93-2.929-7.678-2.929-10.607 0-2.93 2.928-2.93 7.677-.002 10.606z"/><path d="m360.796 269.237c1.803-1.118 4.043-1.293 5.99-.465 3.307 1.404 4.855 5.236 3.452 8.542-1.404 3.307-5.236 4.856-8.544 3.452-3.807-1.615-8.215.159-9.834 3.973-1.619 3.813.159 8.216 3.973 9.835 2.735 1.161 5.578 1.71 8.378 1.71 8.377 0 16.358-4.923 19.834-13.108 2.246-5.29 2.297-11.138.145-16.467-2.153-5.328-6.252-9.5-11.541-11.745-6.428-2.729-13.813-2.16-19.757 1.523-3.521 2.183-4.604 6.806-2.422 10.326 2.18 3.521 6.805 4.606 10.326 2.424z"/></g></g></svg>