<?xml version="1.0" standalone="no"?>
<!DOCTYPE svg PUBLIC "-//W3C//DTD SVG 20010904//EN"
 "http://www.w3.org/TR/2001/REC-SVG-20010904/DTD/svg10.dtd">
<svg version="1.0" xmlns="http://www.w3.org/2000/svg"
 width="306.000000pt" height="280.000000pt" viewBox="0 0 306.000000 280.000000"
 preserveAspectRatio="xMidYMid meet">

<g transform="translate(0.000000,280.000000) scale(0.100000,-0.100000)"
fill="#000000" stroke="none">
<path d="M1556 2581 c-2 -3 -7 -50 -11 -105 -5 -71 -4 -97 4 -92 6 4 11 23 11
42 0 34 5 38 45 35 51 -4 65 -12 65 -35 0 -30 9 -56 20 -56 8 0 -1 49 -15 82
-4 11 -1 24 9 33 23 24 20 62 -6 79 -23 15 -116 28 -122 17z m115 -27 c5 -3 9
-18 9 -34 0 -37 -22 -48 -77 -42 -46 4 -51 15 -36 71 5 21 10 23 50 17 25 -3
49 -8 54 -12z"/>
<path d="M1273 2563 c-39 -5 -39 -6 -17 -126 l16 -88 42 6 c64 10 91 26 94 59
3 21 -3 35 -23 52 -15 13 -22 25 -16 29 15 8 14 48 -1 63 -12 12 -31 13 -95 5z
m90 -32 c7 -29 -10 -48 -48 -55 -19 -4 -35 -11 -35 -15 0 -5 19 -5 41 -1 49 9
81 -14 72 -50 -7 -25 -27 -37 -73 -41 l-35 -4 -7 50 c-4 28 -11 67 -16 88 -6
23 -6 39 0 43 5 3 12 4 14 1 3 -3 17 -2 32 2 34 10 49 5 55 -18z"/>
<path d="M1917 2498 c-9 -13 -39 -48 -66 -78 -51 -56 -70 -92 -27 -51 22 20
26 21 71 9 30 -8 51 -20 56 -33 6 -13 8 4 4 50 -3 39 -5 82 -5 98 0 33 -12 35
-33 5z m25 -64 c2 -25 0 -48 -4 -50 -4 -3 -23 2 -43 10 l-36 16 28 35 c15 19
33 35 39 35 7 0 14 -20 16 -46z"/>
<path d="M1035 2420 c-4 -38 -9 -70 -12 -70 -3 0 -33 16 -67 35 -35 19 -66 35
-69 35 -3 0 11 -33 30 -72 20 -40 39 -84 42 -98 4 -13 10 -20 13 -14 4 5 -7
38 -24 73 -16 34 -27 65 -24 68 3 4 28 -6 55 -20 59 -33 61 -33 61 -3 0 38 12
86 21 86 5 0 22 -30 39 -67 17 -36 33 -63 36 -60 9 8 -72 177 -85 177 -5 0
-12 -31 -16 -70z"/>
<path d="M2149 2377 c-19 -12 -42 -39 -52 -59 -18 -37 -18 -38 4 -77 21 -38
54 -61 87 -61 9 0 -2 9 -25 21 -57 28 -74 69 -47 118 36 67 99 77 149 23 28
-30 34 -19 7 14 -16 19 -62 44 -81 44 -4 0 -23 -10 -42 -23z"/>
<path d="M690 2280 l-44 -38 64 -80 65 -79 48 40 c26 22 45 42 42 45 -3 3 -21
-9 -39 -28 -38 -36 -56 -35 -82 5 -16 25 -16 26 22 60 22 19 34 34 28 35 -6 0
-19 -9 -30 -21 -36 -39 -49 -41 -74 -7 l-23 32 39 32 c21 18 36 35 34 38 -3 2
-25 -13 -50 -34z"/>
<path d="M1950 2309 c0 -5 5 -7 10 -4 6 3 10 8 10 11 0 2 -4 4 -10 4 -5 0 -10
-5 -10 -11z"/>
<path d="M2353 2167 l-72 -72 44 -47 c25 -26 45 -41 45 -34 0 8 -16 27 -36 44
l-35 30 29 32 28 33 37 -33 c44 -38 50 -26 7 15 l-30 29 22 23 c28 30 36 29
75 -9 18 -17 35 -29 38 -27 2 3 -15 24 -38 47 l-43 42 -71 -73z"/>
<path d="M445 1839 c-4 -6 -5 -12 -2 -15 2 -3 7 2 10 11 7 17 1 20 -8 4z"/>
<path d="M2655 1760 c3 -5 8 -10 11 -10 2 0 4 5 4 10 0 6 -5 10 -11 10 -5 0
-7 -4 -4 -10z"/>
<path d="M401 1704 c0 -11 3 -14 6 -6 3 7 2 16 -1 19 -3 4 -6 -2 -5 -13z"/>
<path d="M2311 1634 c0 -11 3 -14 6 -6 3 7 2 16 -1 19 -3 4 -6 -2 -5 -13z"/>
<path d="M382 1610 c0 -14 2 -19 5 -12 2 6 2 18 0 25 -3 6 -5 1 -5 -13z"/>
<path d="M372 1540 c0 -14 2 -19 5 -12 2 6 2 18 0 25 -3 6 -5 1 -5 -13z"/>
<path d="M2711 1544 c0 -11 3 -14 6 -6 3 7 2 16 -1 19 -3 4 -6 -2 -5 -13z"/>
<path d="M1335 1421 c-17 -4 14 -6 68 -6 54 0 88 3 75 7 -29 8 -104 8 -143 -1z"/>
<path d="M1263 1403 c9 -2 23 -2 30 0 6 3 -1 5 -18 5 -16 0 -22 -2 -12 -5z"/>
<path d="M1510 1406 c0 -3 9 -10 20 -16 11 -6 20 -8 20 -6 0 3 -9 10 -20 16
-11 6 -20 8 -20 6z"/>
<path d="M860 1390 l-65 -7 83 -1 c49 -1 82 2 82 8 0 6 -8 9 -17 8 -10 -1 -47
-4 -83 -8z"/>
<path d="M1008 1393 c6 -2 18 -2 25 0 6 3 1 5 -13 5 -14 0 -19 -2 -12 -5z"/>
<path d="M1108 1393 c18 -2 45 -2 60 0 15 2 0 4 -33 4 -33 0 -45 -2 -27 -4z"/>
<path d="M1597 1349 c7 -7 15 -10 18 -7 3 3 -2 9 -12 12 -14 6 -15 5 -6 -5z"/>
<path d="M781 1304 c0 -11 3 -14 6 -6 3 7 2 16 -1 19 -3 4 -6 -2 -5 -13z"/>
<path d="M1670 1296 c0 -3 14 -12 30 -21 17 -9 30 -13 30 -11 0 3 -13 12 -30
21 -16 9 -30 13 -30 11z"/>
<path d="M1745 1250 c3 -5 11 -10 16 -10 6 0 7 5 4 10 -3 6 -11 10 -16 10 -6
0 -7 -4 -4 -10z"/>
<path d="M391 1234 c0 -11 3 -14 6 -6 3 7 2 16 -1 19 -3 4 -6 -2 -5 -13z"/>
<path d="M1787 1229 c7 -7 15 -10 18 -7 3 3 -2 9 -12 12 -14 6 -15 5 -6 -5z"/>
<path d="M1965 1230 c-3 -5 -1 -10 4 -10 6 0 11 5 11 10 0 6 -2 10 -4 10 -3 0
-8 -4 -11 -10z"/>
<path d="M1991 1214 c0 -11 3 -14 6 -6 3 7 2 16 -1 19 -3 4 -6 -2 -5 -13z"/>
<path d="M1945 1200 c-3 -5 -1 -10 4 -10 6 0 11 5 11 10 0 6 -2 10 -4 10 -3 0
-8 -4 -11 -10z"/>
<path d="M2116 1186 c21 -15 30 -14 19 3 -3 6 -14 11 -23 11 -13 0 -13 -2 4
-14z"/>
<path d="M1890 1180 c8 -5 20 -10 25 -10 6 0 3 5 -5 10 -8 5 -19 10 -25 10 -5
0 -3 -5 5 -10z"/>
<path d="M1991 1174 c0 -11 3 -14 6 -6 3 7 2 16 -1 19 -3 4 -6 -2 -5 -13z"/>
<path d="M1033 1173 c15 -2 39 -2 55 0 15 2 2 4 -28 4 -30 0 -43 -2 -27 -4z"/>
<path d="M1165 1170 c28 -4 59 -11 70 -14 11 -4 7 0 -10 8 -16 8 -48 15 -70
14 -39 0 -39 -1 10 -8z"/>
<path d="M1930 1171 c0 -6 4 -13 10 -16 6 -3 7 1 4 9 -7 18 -14 21 -14 7z"/>
<path d="M2070 1150 c-7 -16 -16 -30 -21 -30 -5 0 -9 -5 -9 -11 0 -5 5 -7 10
-4 13 8 43 65 37 71 -2 3 -10 -9 -17 -26z"/>
<path d="M791 1154 c0 -11 3 -14 6 -6 3 7 2 16 -1 19 -3 4 -6 -2 -5 -13z"/>
<path d="M940 1160 c-20 -6 -21 -8 -5 -8 11 0 31 4 45 8 20 6 21 8 5 8 -11 0
-31 -4 -45 -8z"/>
<path d="M2121 1133 c-10 -26 -10 -27 4 -9 8 11 15 23 15 28 0 15 -7 8 -19
-19z"/>
<path d="M860 1141 c0 -4 11 -6 25 -3 14 2 25 6 25 8 0 2 -11 4 -25 4 -14 0
-25 -4 -25 -9z"/>
<path d="M1639 1130 c34 -12 59 -16 69 -11 16 9 -1 15 -83 26 -38 5 -38 4 14
-15z"/>
<path d="M1985 1130 c10 -11 20 -18 23 -15 7 6 -18 35 -31 35 -5 0 -2 -9 8
-20z"/>
<path d="M1310 1120 c8 -5 20 -10 25 -10 6 0 3 5 -5 10 -8 5 -19 10 -25 10 -5
0 -3 -5 5 -10z"/>
<path d="M1794 1095 c66 -28 66 -28 66 -17 0 8 -58 30 -100 38 -14 3 2 -7 34
-21z"/>
<path d="M1997 1075 c-10 -14 -14 -25 -10 -25 4 0 16 12 26 25 10 14 14 25 10
25 -4 0 -16 -12 -26 -25z"/>
<path d="M1392 1074 c10 -10 20 -16 22 -13 3 3 -5 11 -17 18 -21 13 -21 12 -5
-5z"/>
<path d="M1895 1068 c11 -7 26 -13 33 -14 23 -4 27 -14 6 -16 -10 0 -23 -2
-29 -3 -5 -2 -18 -3 -28 -4 -10 0 -16 -5 -12 -10 5 -9 89 10 102 23 6 6 -22
18 -67 30 -23 6 -24 6 -5 -6z"/>
<path d="M2085 1070 c-3 -5 -1 -10 4 -10 6 0 11 5 11 10 0 6 -2 10 -4 10 -3 0
-8 -4 -11 -10z"/>
<path d="M2627 1051 c-4 -17 -3 -21 5 -13 5 5 8 16 6 23 -3 8 -7 3 -11 -10z"/>
<path d="M1440 1040 c8 -5 20 -10 25 -10 6 0 3 5 -5 10 -8 5 -19 10 -25 10 -5
0 -3 -5 5 -10z"/>
<path d="M1485 1010 c3 -5 8 -10 11 -10 2 0 4 5 4 10 0 6 -5 10 -11 10 -5 0
-7 -4 -4 -10z"/>
<path d="M2080 995 c-14 -8 -20 -14 -15 -14 6 0 21 6 35 14 14 8 21 14 15 14
-5 0 -21 -6 -35 -14z"/>
<path d="M1999 984 c-25 -14 -11 -17 31 -5 19 5 21 8 9 13 -8 3 -26 0 -40 -8z"/>
<path d="M2185 974 c-19 -15 -22 -21 -9 -15 18 9 52 41 43 41 -2 0 -17 -12
-34 -26z"/>
<path d="M1865 976 c11 -7 31 -16 45 -20 14 -4 8 2 -14 14 -46 23 -59 26 -31
6z"/>
<path d="M1557 959 c7 -7 15 -10 18 -7 3 3 -2 9 -12 12 -14 6 -15 5 -6 -5z"/>
<path d="M495 950 c3 -5 8 -10 11 -10 2 0 4 5 4 10 0 6 -5 10 -11 10 -5 0 -7
-4 -4 -10z"/>
<path d="M1600 930 c8 -5 22 -9 30 -9 10 0 8 3 -5 9 -27 12 -43 12 -25 0z"/>
<path d="M2060 920 l-35 -7 35 -2 c19 0 42 4 50 9 13 9 13 10 0 9 -8 -1 -31
-5 -50 -9z"/>
<path d="M1711 906 c2 -2 22 -6 44 -9 28 -5 34 -4 20 3 -19 8 -73 14 -64 6z"/>
<path d="M1830 880 c8 -5 22 -9 30 -9 10 0 8 3 -5 9 -27 12 -43 12 -25 0z"/>
<path d="M1917 849 c7 -7 15 -10 18 -7 3 3 -2 9 -12 12 -14 6 -15 5 -6 -5z"/>
<path d="M2080 852 c0 -5 28 -7 63 -4 89 5 94 10 10 11 -40 1 -73 -3 -73 -7z"/>
<path d="M1993 843 c15 -2 37 -2 50 0 12 2 0 4 -28 4 -27 0 -38 -2 -22 -4z"/>
<path d="M2446 753 c-6 -14 -5 -15 5 -6 7 7 10 15 7 18 -3 3 -9 -2 -12 -12z"/>
<path d="M2261 580 c-31 -26 -17 -26 16 0 14 11 22 20 17 20 -5 -1 -20 -10
-33 -20z"/>
<path d="M820 566 c0 -2 7 -7 16 -10 8 -3 12 -2 9 4 -6 10 -25 14 -25 6z"/>
<path d="M1099 493 c-24 -68 -32 -82 -47 -85 -10 -2 11 -13 46 -25 34 -12 62
-18 62 -14 0 5 -15 12 -32 17 -23 7 -34 17 -36 32 -4 24 4 27 43 12 31 -12 47
-6 39 15 -4 10 -15 12 -36 8 -31 -6 -31 -6 -24 30 8 44 0 49 -15 10z"/>
<path d="M1921 489 c-1 -9 5 -37 13 -63 13 -43 13 -47 -4 -56 -16 -9 -21 -3
-35 38 -10 26 -19 53 -21 61 -3 8 -7 11 -10 8 -3 -3 1 -28 10 -55 9 -27 14
-56 10 -65 -8 -21 -8 -21 49 -1 46 15 46 16 31 39 -14 22 -14 24 5 35 12 6 22
7 22 3 1 -4 2 -15 3 -23 1 -19 44 -26 60 -10 8 9 4 10 -18 4 -27 -7 -29 -5
-22 20 5 19 3 26 -9 26 -8 0 -15 9 -15 20 0 24 32 27 50 5 7 -8 17 -15 23 -15
5 0 2 9 -8 20 -13 14 -29 20 -49 18 -25 -2 -32 -8 -34 -30 -4 -38 -27 -35 -40
5 -5 17 -10 25 -11 16z"/>
<path d="M1326 438 c-3 -13 -8 -40 -11 -60 -4 -26 -11 -38 -23 -39 -9 -1 -3
-5 13 -9 33 -8 117 -11 98 -3 -16 6 -17 35 -2 50 6 6 8 16 5 22 -13 21 -24 11
-31 -28 -5 -33 -10 -38 -27 -34 -18 5 -19 11 -13 64 7 57 0 82 -9 37z"/>
<path d="M1709 444 c0 -5 0 -35 1 -66 l1 -58 -70 0 c-39 0 -71 4 -71 10 0 14
39 32 58 26 41 -13 60 33 26 65 -13 12 -26 20 -29 17 -3 -2 4 -13 15 -23 11
-10 20 -24 20 -32 0 -17 -36 -17 -44 0 -5 10 -7 10 -12 0 -13 -28 -34 -13 -34
23 0 20 -4 33 -10 29 -5 -3 -7 -29 -4 -60 4 -37 3 -55 -5 -55 -6 0 -11 -4 -11
-10 0 -5 9 -10 20 -10 11 0 20 -4 20 -8 0 -29 129 -58 145 -32 10 17 15 70 6
70 -4 0 -9 26 -10 57 -1 31 -4 59 -6 62 -3 2 -5 0 -6 -5z m11 -154 c0 -27 -42
-36 -87 -19 -62 24 -53 39 21 39 59 0 66 -2 66 -20z"/>
<path d="M1560 260 c0 -5 5 -10 10 -10 6 0 10 5 10 10 0 6 -4 10 -10 10 -5 0
-10 -4 -10 -10z"/>
</g>
</svg>
